<svg xmlns="http://www.w3.org/2000/svg" viewBox="0 0 638 171.07" width="119" height="32"><path d="M233.08 128.04h14.55l-2.47-11.31v-67.2h-13.9v30.68a21.8 21.8 0 0 0-16.77-7.68c-13.91 0-24.7 11.57-24.7 28.34s10.79 28.34 24.7 28.34a21.65 21.65 0 0 0 17-8.06l1.56 6.89zm275.06-40.43a13 13 0 0 1 7.8 2.47l6.63-14.82a18.89 18.89 0 0 0-10.14-2.73 16.78 16.78 0 0 0-14.82 8.19l-1.43-6.89h-14.3l2.34 10.7v43.68h13.91V93.46c1.82-3.64 5.33-5.85 10-5.85zm40.69 27c-8.06 0-14-5.33-14-13.65s6-13.65 14-13.65 14 5.2 14 13.65c0 8.19-5.84 13.65-14 13.65zm-345.52-13.74c0-8.45 6-13.65 14-13.65s14 5.2 14 13.65-5.85 13.65-14 13.65-14-5.33-14-13.65zm407.26 13.78c-8.06 0-14-5.33-14-13.65s6-13.65 14-13.65 14 5.2 14 13.65c-.09 8.19-5.94 13.65-14 13.65zM281.43 86.44c7.15 0 11.83 3.38 13.39 9.62H268c1.43-6.37 6.24-9.62 13.39-9.62zm166.26 0c7.15 0 11.83 3.38 13.39 9.62H434.3c1.69-6.37 6.37-9.62 13.39-9.62zm-67.85 41.6h22.35l14.56-54.51h-15.21L391 117.77 380.34 73.7h-15l14.43 54.34zm-35.75 0H358V73.53h-13.91zm-60.58 1a40.65 40.65 0 0 0 21.71-6.24l-5.33-12a34 34 0 0 1-16.25 4.16c-7.28 0-12.35-2.86-14.69-8.19h39.26a32 32 0 0 0 .65-6.37c0-16.9-11.7-28.08-27.17-28.08-15.73 0-27.17 11.44-27.17 28.34-.13 17.29 11.31 28.34 29 28.34zM638 100.87c0-16.9-11.7-28.34-27.43-28.34s-27.43 11.57-27.43 28.34 11.7 28.34 27.43 28.34S638 117.77 638 100.87zm-188.36 28.34a39.54 39.54 0 0 0 21.71-6.24l-5.33-12a34 34 0 0 1-16.25 4.16c-7.28 0-12.35-2.86-14.69-8.19h39.26a32 32 0 0 0 .65-6.37c0-16.9-11.7-28.08-27.17-28.08-15.73 0-27.17 11.44-27.17 28.34 0 17.42 11.31 28.34 29 28.34zm99.19 0c15.85 0 27.42-11.57 27.42-28.34s-11.7-28.34-27.42-28.34-27.43 11.57-27.43 28.34 11.57 28.34 27.43 28.34zm-231.13-1.17h13.91V49.53H317.7v78.52zm33.41-61.88a8.84 8.84 0 0 0 0-17.68 8.84 8.84 0 0 0-8.84 8.84 8.74 8.74 0 0 0 8.84 8.84zM112.05 0l-7.93 75.39L90.6 11.82l-42.63 9 13.39 63.57L0 97.39l10.92 50.7 108 23 24.7-55.24L155.34 4.53 112.05-.02zM77.87 109.45c-2.21 2.08-5.07 1.82-8.32.78s-4.42-4.68-3.38-9.36c.91-3.38 4.94-3.9 7.15-3.9a5.1 5.1 0 0 1 2.34.52c1.43.65 3.9 2.08 4.41 4.16a7.54 7.54 0 0 1-2.2 7.8zm31.32 3.38c-1.69 2.86-5.85 3.25-10.14 1.17-2.86-1.43-2.86-4.81-2.47-7a6.14 6.14 0 0 1 1.42-3.27c1-1.3 2.73-3 4.55-3a7.9 7.9 0 0 1 7.41 3.9c1.56 2.6.78 5.46-.78 8.19z" fill="#838583"/></svg>