<svg xmlns="http://www.w3.org/2000/svg" width="159" height="32" viewBox="0 0 1549 312"><defs><linearGradient id="A" x1="100.6" y1="191.1" x2="423.9" y2="207.5" gradientUnits="userSpaceOnUse"><stop offset="0" stop-color="#0064e1"/><stop offset=".4" stop-color="#0064e1"/><stop offset=".8" stop-color="#0073ee"/><stop offset="1" stop-color="#0082fb"/></linearGradient><linearGradient id="B" x1="74.5" y1="227.1" x2="74.5" y2="107.8" gradientUnits="userSpaceOnUse"><stop offset="0" stop-color="#0082fb"/><stop offset="1" stop-color="#0064e0"/></linearGradient></defs><path d="M51.7 205.8c0 17.9 4 31.7 9.1 40 6.7 10.9 16.8 15.5 27.1 15.5 13.2 0 25.3-3.3 48.6-35.5 18.7-25.9 40.7-62.2 55.5-84.9l25.1-38.6c17.4-26.8 37.6-56.5 60.7-76.7C296.7 9.1 317 0 337.5 0c34.4 0 67.2 19.9 92.3 57.4 27.4 40.9 40.8 92.5 40.8 145.8 0 31.6-6.3 54.9-16.9 73.3-10.2 17.7-30.2 35.5-63.9 35.5v-50.7c28.8 0 36-26.4 36-56.7 0-43.2-10-91.1-32.2-125.3-15.7-24.3-36.1-39.1-58.5-39.1-24.3 0-43.8 18.3-65.7 50.9-11.7 17.3-23.6 38.5-37.1 62.3l-14.8 26.2c-29.7 52.7-37.2 64.7-52.1 84.6-26 34.7-48.3 47.8-77.5 47.8-34.8 0-56.7-15-70.3-37.7C6.5 255.8 1 231.6 1 203.9z" fill="#838583"/><path d="M41 60.9C64.2 25.1 97.8 0 136.3 0c22.3 0 44.4 6.6 67.6 25.5 25.3 20.7 52.3 54.7 85.9 110.8l12.1 20.1c29.1 48.5 45.7 73.5 55.4 85.3 12.5 15.1 21.2 19.6 32.5 19.6 28.8 0 36-26.4 36-56.7l44.8-1.4c0 31.6-6.3 54.9-16.9 73.3-10.2 17.7-30.2 35.5-63.9 35.5-20.9 0-39.4-4.5-59.9-23.9-15.7-14.8-34.1-41.1-48.3-64.8l-42.1-70.4c-21.1-35.3-40.5-61.7-51.7-73.6C175.7 66.5 160.2 51 135.5 51c-20.1 0-37.1 14.1-51.3 35.6z" fill="#838583"/><path d="M135.5 51c-20.1 0-37.1 14.1-51.3 35.6C64 117 51.7 162.3 51.7 205.8c0 17.9 4 31.7 9.1 40l-43.2 28.5C6.5 255.8 1 231.6 1 203.9c0-50.2 13.8-102.5 40-143C64.2 25.1 97.8 0 136.3 0z" fill="#838583"/><path fill-rule="evenodd" d="M569.2 9.9h58.6l99.8 180.5L827.4 9.9h57.3v296.6h-47.8V79.2l-87.5 157.4h-44.9L617 79.2v227.3h-47.8zm358.1 186.7c0-67.3 43.5-116.3 108.2-116.3 63.7 0 101.7 48.3 101.7 119.9v13.1H974.8c5.7 34.8 28.8 58.3 66.1 58.3 29.7 0 48.2-9.1 65.8-25.6l25.5 31.1c-24 22-54.5 34.7-93 34.7-70.1 0-111.9-51.1-111.9-115.2zm107.4-76.1c-34.3 0-55 25.9-59.9 57.9h116.5c-2.4-33-21.4-57.9-56.6-57.9zm160.6 4.3h-44.1V85.6h44.1V20.7h46.1v64.9h67v39.2h-67v99.3c0 34 10.9 46 37.5 46 12.2 0 19.2-1 29.5-2.7v38.7c-12.9 3.7-25.1 5.3-38.4 5.3q-74.7 0-74.7-81.8zM1549 306.6h-45.3v-30.9c-12.7 18.2-35.8 36.2-73.1 36.2-60.1 0-100.2-50.3-100.2-115.9 0-66.2 41.1-115.7 102.7-115.7 30.5 0 54.4 12.2 70.6 33.7V85.6h45.3zM1502.8 163c-9.3-23.5-29.9-40.7-60.3-40.7-39.6 0-64.9 28-64.9 73.7 0 44.6 23.3 74 63 74 31.1 0 53.4-18.2 62.2-40.7z" fill="#838583"/></svg>