<svg xmlns="http://www.w3.org/2000/svg" width="159" height="32" viewBox="0 0 13.778 2.775"><rect width="13.778" height="2.775" rx=".404"/><g fill="#fff"><path d="M1.001 2.139V.784H.58V.476h1.184v.307h-.421v1.355zm1.179.023q-.187 0-.296-.107-.109-.109-.109-.285 0-.127.059-.219.061-.091.175-.139.116-.05.278-.05h.246v-.08q0-.071-.05-.109-.048-.041-.139-.041-.087 0-.139.034-.05.034-.055.1h-.323q.007-.184.146-.294.139-.109.376-.109.248 0 .387.114.139.114.139.319v.842h-.33V1.89h-.055l.061-.036q0 .093-.046.164-.046.068-.13.107-.082.036-.196.036zm.121-.273q.107 0 .168-.052.064-.055.064-.141v-.127h-.239q-.091 0-.141.046-.048.043-.048.114 0 .071.05.116.052.046.146.046zm.689.25V.476h.342v.883h.173l.262-.474h.376l-.348.612.355.64h-.383l-.264-.492h-.171v.492zm1.693.023q-.166 0-.291-.061-.123-.064-.191-.175-.066-.114-.066-.264v-.296q0-.15.066-.262.068-.114.191-.175.125-.064.291-.064.166 0 .287.064.123.061.189.175.068.112.068.262v.232H4.46v.064q0 .118.055.173.057.055.168.055.073 0 .127-.023.055-.023.064-.068h.335q-.036.164-.18.264-.143.1-.346.1zm.219-.745V1.36q0-.116-.055-.18-.052-.064-.164-.064-.112 0-.168.066-.055.066-.055.182v.03l.464-.005zm.949.745q-.253 0-.401-.137-.146-.137-.146-.373V.477h.342v1.173q0 .105.052.162.055.055.153.055.096 0 .15-.055.055-.057.055-.162V.477h.342v1.175q0 .235-.148.373-.146.137-.398.137zm.637.387V.886h.33v.262h.08l-.112.171q0-.209.1-.332.102-.123.275-.123.121 0 .212.064.091.061.141.171.052.109.052.255v.319q0 .143-.052.255-.05.109-.141.173-.091.061-.212.061-.173 0-.275-.123-.1-.123-.1-.332l.112.173h-.08l.011.328v.342zm.542-.683q.093 0 .143-.052.052-.055.052-.153v-.296q0-.1-.052-.153-.05-.052-.143-.052-.098 0-.15.057-.05.055-.05.159v.273q0 .105.05.162.052.055.15.055z"/><path d="M8.611 2.412q-.357-.084-.556-.319-.196-.237-.196-.574v-.405q0-.337.196-.569.198-.232.556-.319v.342q-.125.03-.219.107-.091.075-.141.189-.05.112-.05.25v.405q0 .137.05.25.05.112.141.189.093.075.219.107z" fill="#e0ca3c"/><path d="M8.82 2.139V.476h.54q.173 0 .301.066.13.066.2.187.073.118.073.28v.594q0 .159-.073.28-.071.121-.2.189-.128.066-.301.066zm.342-.307h.198q.102 0 .166-.064.066-.064.066-.164v-.594q0-.1-.066-.162Q9.462.784 9.36.784h-.198zm.867.307V.476h1.025v.296h-.69v.373h.61v.282h-.61v.414h.69v.296zm1.457 0L11.073.476h.353l.23 1.05q.011.055.027.139.018.084.027.143.009-.059.023-.143.014-.084.025-.141l.223-1.047h.344l-.408 1.662z" fill="#d63384"/><path d="M12.447 2.412v-.346q.128-.032.219-.107.091-.077.141-.189.05-.114.05-.25v-.405q0-.139-.05-.25-.05-.114-.141-.189-.091-.077-.219-.107V.226q.36.087.556.319.196.232.196.569v.405q0 .337-.196.574-.196.235-.556.319z" fill="#e0ca3c"/></g></svg>